<?xml version="1.0" ?><svg data-name="Layer 17" height="24" id="Layer_17" viewBox="0 0 24 24" width="24" xmlns="http://www.w3.org/2000/svg"><title/><path d="M3.65448,9.36157c-2.79974,2.7998-1.76575,6.68341,1.2674,9.71655s6.91669,4.06714,9.71649,1.26733S18.625,11.375,15.625,8.375C12.71875,5.46875,6.45428,6.56183,3.65448,9.36157Zm7.93689,10.50177c-1.0293,1.0293-3.53247.19489-5.59106-1.86365S3.10736,13.43793,4.1366,12.40863s3.53253-.19489,5.59106,1.86371S12.62061,18.83411,11.59137,19.86334Z"/><ellipse cx="7.86398" cy="16.13599" rx="1.11554" ry="2.23109" transform="translate(-9.1065 10.28663) rotate(-44.99945)"/><path d="M21.769,4.35748,21.41547,4H20V2.58966l-.35236-.35352a1.5,1.5,0,0,0-2.12128,2.12134l.07892.07892-1.8761,1.8761L17.6875,8.27081l1.8761-1.8761.084.084A1.5,1.5,0,0,0,21.769,4.35748Z"/></svg>