<?xml version="1.0" ?><svg enable-background="new 0 0 24 24" id="Layer_1" version="1.1" viewBox="0 0 24 24" xml:space="preserve" xmlns="http://www.w3.org/2000/svg" xmlns:xlink="http://www.w3.org/1999/xlink"><path d="M20.8203125,3.1162109l-3-2.5c-0.2109375-0.1757813-0.5263672-0.1484375-0.7041016,0.0634766  c-0.1767578,0.2119141-0.1484375,0.5273438,0.0634766,0.7041016l1.2810059,1.067627  c-0.546936,1.0391846-0.3027344,2.3157349,0.6350098,3.0651855L20,6.2405396V19.5c0,0.2246094-0.2753906,0.5-0.5,0.5  S19,19.7246094,19,19.5v-2c0-1.2076416-0.8600464-2.2172241-2-2.4494629V2c0-1.1025391-0.8974609-2-2-2H5  C3.8974609,0,3,0.8974609,3,2v20c0,1.1025391,0.8974609,2,2,2h10c1.1025391,0,2-0.8974609,2-2v-5.9078979  c0.5807495,0.2070923,1,0.756897,1,1.4078979v2c0,0.7714844,0.7285156,1.5,1.5,1.5s1.5-0.7285156,1.5-1.5v-16  C21,3.3515625,20.9345703,3.2109375,20.8203125,3.1162109z M14.5,13h-9C5.2236328,13,5,12.7763672,5,12.5S5.2236328,12,5.5,12h9  c0.2763672,0,0.5,0.2236328,0.5,0.5S14.7763672,13,14.5,13z M15,9.5c0,0.2763672-0.2236328,0.5-0.5,0.5h-9  C5.2236328,10,5,9.7763672,5,9.5v-7C5,2.2236328,5.2236328,2,5.5,2h9C14.7763672,2,15,2.2236328,15,2.5V9.5z M19.7207031,4.7353516  c-0.4962769-0.3966675-0.6489868-1.0379639-0.4522705-1.6107178L20,3.734375v1.2245483L19.7207031,4.7353516z" fill="#303C42"/><g/><g/><g/><g/><g/><g/><g/><g/><g/><g/><g/><g/><g/><g/><g/></svg>