<?xml version="1.0" ?><svg enable-background="new 0 0 24 24" id="Layer_1" version="1.1" viewBox="0 0 24 24" xml:space="preserve" xmlns="http://www.w3.org/2000/svg" xmlns:xlink="http://www.w3.org/1999/xlink"><g><path d="M14,3h-4c-4.9628906,0-9,4.0375977-9,9s4.0371094,9,9,9h4c1.1025391,0,2-0.8969727,2-2V5   C16,3.8969727,15.1025391,3,14,3z" fill="#303C42"/><path d="M22.5,6h-5C17.2236328,6,17,6.2236328,17,6.5v1C17,7.7763672,17.2236328,8,17.5,8h5   C22.7763672,8,23,7.7763672,23,7.5v-1C23,6.2236328,22.7763672,6,22.5,6z" fill="#303C42"/><path d="M22.5,11h-5c-0.2763672,0-0.5,0.2236328-0.5,0.5v1c0,0.2763672,0.2236328,0.5,0.5,0.5h5   c0.2763672,0,0.5-0.2236328,0.5-0.5v-1C23,11.2236328,22.7763672,11,22.5,11z" fill="#303C42"/><path d="M22.5,16h-5c-0.2763672,0-0.5,0.2236328-0.5,0.5v1c0,0.2763672,0.2236328,0.5,0.5,0.5h5   c0.2763672,0,0.5-0.2236328,0.5-0.5v-1C23,16.2236328,22.7763672,16,22.5,16z" fill="#303C42"/></g><g/><g/><g/><g/><g/><g/><g/><g/><g/><g/><g/><g/><g/><g/><g/></svg>