<svg height="512" viewBox="0 0 192 192" width="512" xmlns="http://www.w3.org/2000/svg"><path d="m189.823 48.432-45.255-45.255a8 8 0 0 0 -11.313 0l-57.039 57.039 56.568 56.568 57.039-57.039a8 8 0 0 0 0-11.313z"/><path d="m8.216 128.216-5.069 5.068a8 8 0 0 0 0 11.314l6.686 6.686-8.312 18.288a8 8 0 0 0 1.626 8.967l10.607 10.607a8 8 0 0 0 8.967 1.626l18.288-8.313 7.393 7.394a8.079 8.079 0 0 0 11.314 0l5.068-5.069z"/><path d="m133.255 127.627-67.882-67.882a8 8 0 0 0 -11.314 0l-45.259 45.255a8 8 0 0 0 0 11.313l67.887 67.887a8.077 8.077 0 0 0 11.313 0l45.255-45.255a8 8 0 0 0 0-11.318zm-45.255 11.314-14.53 14.529-33.94-33.94 14.529-14.53a8 8 0 0 1 11.314 0l22.627 22.627a8 8 0 0 1 0 11.314z"/></svg>