<?xml version="1.0" ?><svg id="Layer_1" style="enable-background:new 0 0 128 128;" version="1.1" viewBox="0 0 128 128" xml:space="preserve" xmlns="http://www.w3.org/2000/svg" xmlns:xlink="http://www.w3.org/1999/xlink"><style type="text/css">
	.st0{fill:#FFF;}
</style><g><polygon class="st0" points="57.7,8.3 21,30.9 67.9,30.9  "/><polygon class="st0" points="109,30.9 98,4.6 70.6,24.4 73.6,30.9  "/><path class="st0" d="M119.5,36H8.5C4.4,36,1,39.3,1,43.5v72.4c0,4.1,3.4,7.5,7.5,7.5h111c4.1,0,7.5-3.4,7.5-7.5V93.1h-25.1   c-7.5,0-13.6-6.1-13.6-13.6v-2.3c0-7.5,6.1-13.6,13.6-13.6H127V43.5C127,39.3,123.6,36,119.5,36z"/><path class="st0" d="M93.4,77.2v2.3c0,4.7,3.8,8.5,8.5,8.5H127V68.7h-25.1C97.2,68.7,93.4,72.5,93.4,77.2z M106.4,75.8   c1.4,0,2.6,1.1,2.6,2.6c0,1.4-1.1,2.6-2.6,2.6h-4.2c-1.4,0-2.6-1.1-2.6-2.6c0-1.4,1.1-2.6,2.6-2.6H106.4z"/></g></svg>